<svg width="27" height="27" viewBox="0 0 27 27" fill="none" xmlns="http://www.w3.org/2000/svg">
<path d="M13.375 1.89062C7.03296 1.89062 1.89062 7.03296 1.89062 13.375C1.89062 19.717 7.03296 24.8594 13.375 24.8594C19.717 24.8594 24.8594 19.717 24.8594 13.375C24.8594 7.03296 19.717 1.89062 13.375 1.89062ZM19.9375 8.39417L18.8916 9.39648C18.7993 9.4657 18.7557 9.57849 18.7737 9.68872V17.0638C18.7557 17.1766 18.7993 17.2894 18.8916 17.3561L19.917 18.3584V18.5814H14.7695V18.3687L15.8282 17.3407C15.9333 17.2356 15.9333 17.2048 15.9333 17.0485V11.0807L12.9854 18.5558H12.588L9.15808 11.0807V16.0923C9.12732 16.3025 9.20166 16.5153 9.35034 16.6665L10.7295 18.3353V18.5583H6.8125V18.3353L8.19165 16.6665C8.26431 16.5914 8.31839 16.5004 8.34955 16.4007C8.38071 16.301 8.38809 16.1954 8.37109 16.0923V10.2988C8.38904 10.1373 8.32751 9.98096 8.20447 9.87073L6.97913 8.39417V8.17114H10.7859L13.7236 14.6183L16.3102 8.17627H19.9375V8.39417Z" fill="white"/>
</svg>
