<svg width="21" height="20" viewBox="0 0 21 20" fill="none" xmlns="http://www.w3.org/2000/svg">
<path d="M19.9452 4.26141C19.2686 4.56203 18.5417 4.76516 17.7776 4.85697C18.566 4.38392 19.1559 3.63941 19.4371 2.76234C18.6964 3.20352 17.8856 3.51406 17.0402 3.68047C16.4716 3.0718 15.7186 2.66836 14.8979 2.53279C14.0773 2.39722 13.235 2.53711 12.5017 2.93074C11.7685 3.32436 11.1854 3.9497 10.8429 4.70966C10.5005 5.46963 10.4178 6.3217 10.6078 7.13359C9.10682 7.05803 7.63846 6.66685 6.29801 5.98545C4.95756 5.30405 3.77498 4.34766 2.82703 3.17834C2.5029 3.73897 2.31652 4.38897 2.31652 5.08122C2.31616 5.7044 2.46921 6.31804 2.7621 6.86769C3.05499 7.41734 3.47866 7.886 3.99552 8.23209C3.3961 8.21297 2.80991 8.05057 2.28573 7.75841V7.80716C2.28567 8.68119 2.5872 9.52834 3.13915 10.2048C3.69111 10.8813 4.45949 11.3455 5.31393 11.5187C4.75786 11.6695 4.17488 11.6918 3.60899 11.5837C3.85007 12.3357 4.31965 12.9934 4.95201 13.4645C5.58436 13.9357 6.34784 14.1968 7.13554 14.2113C5.79837 15.2638 4.14696 15.8347 2.44698 15.8322C2.14585 15.8323 1.84497 15.8147 1.5459 15.7794C3.27147 16.8919 5.28017 17.4823 7.33164 17.48C14.2762 17.48 18.0725 11.7128 18.0725 6.71109C18.0725 6.54859 18.0685 6.38447 18.0612 6.22197C18.7996 5.68651 19.4371 5.02345 19.9436 4.26384L19.9452 4.26141Z" fill="white"/>
</svg>
